name analog
datacolumns 19
datarows 55
range 0.488 0.515
endheader
time	ground_force_vx	ground_force_vy	ground_force_vz	ground_force_px	ground_force_py	ground_force_pz	l_ground_force_vx	l_ground_force_vy	l_ground_force_vz	l_ground_force_px	l_ground_force_py	l_ground_force_pz	ground_torque_x	ground_torque_y	ground_torque_z	l_ground_torque_x	l_ground_torque_y	l_ground_torque_z
0.488	-0.0	-0.0	-0.0	3.778069019317627	12.38912582397461	-83.49759674072266	0.6106541752815247	-23.11972999572754	-130.54208374023438	-0.0	-0.0	-0.0	-0.0	-0.0	-0.0	31055.943359375	754.1963500976562	-265.51177978515625
0.4885	-0.0	-0.0	-0.0	3.8046114444732666	12.242277145385742	-79.77717590332031	1.1796001195907593	-23.19756507873535	-127.3994369506836	-0.0	-0.0	-0.0	-0.0	-0.0	-0.0	30281.115234375	590.2219848632812	-156.848388671875
0.489	-0.0	-0.0	-0.0	3.143483638763428	11.508370399475098	-77.05381774902344	1.4089034795761108	-22.91700935363769	-123.33293151855467	-0.0	-0.0	-0.0	-0.0	-0.0	-0.0	29536.462890625	749.1275634765625	70.170166015625
0.4895	-0.0	-0.0	-0.0	3.0331573486328125	11.04155158996582	-74.1257095336914	2.0869028568267822	-22.48617172241211	-120.00788116455078	-0.0	-0.0	-0.0	-0.0	-0.0	-0.0	28318.642578125	720.6903076171875	173.75697326660156
0.49	-0.0	-0.0	-0.0	3.525655031204224	11.230430603027344	-70.1412582397461	2.4839019775390625	-22.83309555053711	-117.87272644042967	-0.0	-0.0	-0.0	-0.0	-0.0	-0.0	28149.37109375	537.1790771484375	392.2349853515625
0.4905	-0.0	-0.0	-0.0	3.4253644943237305	10.85239028930664	-70.0270004272461	3.1829090118408203	-22.93174171447754	-117.23088073730467	-0.0	-0.0	-0.0	-0.0	-0.0	-0.0	27724.0390625	322.1225891113281	579.0067749023438
0.491	-0.0	-0.0	-0.0	3.6142985820770255	10.898099899291992	-68.12084197998047	3.959757089614868	-22.974334716796875	-117.75955200195312	-0.0	-0.0	-0.0	-0.0	-0.0	-0.0	27686.982421875	197.74122619628903	909.3814697265624
0.4915	-0.0	-0.0	-0.0	3.881619453430176	10.873908996582031	-64.97748565673828	4.424719333648682	-23.82530975341797	-115.90987396240234	-0.0	-0.0	-0.0	-0.0	-0.0	-0.0	27631.23828125	18.72462272644043	1065.0006103515625
0.492	-0.0	-0.0	-0.0	3.781144618988037	10.96303939819336	-65.7784194946289	5.1234450340271	-23.812746047973636	-119.1035614013672	-0.0	-0.0	-0.0	-0.0	-0.0	-0.0	28336.451171875	-21.19338035583496	1147.2095947265625
0.4925	-0.0	-0.0	-0.0	4.383211612701416	11.063204765319824	-64.54447937011719	5.854911804199219	-24.79658317565918	-121.19872283935548	-0.0	-0.0	-0.0	-0.0	-0.0	-0.0	28846.3125	-8.862191200256348	1473.7423095703125
0.493	-0.0	-0.0	-0.0	4.717034339904785	11.45337200164795	-64.18976593017578	6.708927631378174	-25.281967163085938	-124.56029510498048	-0.0	-0.0	-0.0	-0.0	-0.0	-0.0	29915.337890625	-390.0973510742188	1566.85546875
0.4935	-0.0	-0.0	-0.0	4.471993923187256	11.375162124633787	-66.4421157836914	7.451662540435791	-25.86720848083496	-130.14622497558594	-0.0	-0.0	-0.0	-0.0	-0.0	-0.0	30884.029296875	-391.1336364746094	1752.617431640625
0.494	-0.0	-0.0	-0.0	4.906578063964844	10.940545082092283	-68.78095245361328	7.62852144241333	-25.88936996459961	-137.0847625732422	-0.0	-0.0	-0.0	-0.0	-0.0	-0.0	32870.1484375	-728.7634887695312	1815.8226318359373
0.4945	-0.0	-0.0	-0.0	5.586256980895996	10.672998428344728	-69.62132263183594	8.405040740966797	-26.120834350585938	-144.6766815185547	-0.0	-0.0	-0.0	-0.0	-0.0	-0.0	34596.76171875	-1279.7120361328125	2005.22021484375
0.495	-0.0	-0.0	-0.0	5.777866363525391	10.416868209838867	-74.07752990722656	9.103294372558594	-25.92155265808105	-152.2301025390625	-0.0	-0.0	-0.0	-0.0	-0.0	-0.0	37314.5078125	-1537.332763671875	2117.37841796875
0.4955	-0.0	-0.0	-0.0	6.023010730743408	9.715213775634766	-79.60179138183594	9.503437042236328	-26.07522201538086	-163.08935546875	-0.0	-0.0	-0.0	-0.0	-0.0	-0.0	40193.06640625	-1883.7730712890625	2324.5634765625
0.496	-0.0	-0.0	-0.0	6.558530807495117	9.269561767578123	-85.43619537353516	9.7267427444458	-25.80133628845215	-175.8822479248047	-0.0	-0.0	-0.0	-0.0	-0.0	-0.0	43562.1015625	-2275.427490234375	2413.666259765625
0.4965	-0.0	-0.0	-0.0	6.803221702575684	8.699975967407227	-96.20285034179688	10.101512908935549	-25.647687911987305	-192.1558990478516	-0.0	-0.0	-0.0	-0.0	-0.0	-0.0	47609.1328125	-2453.092529296875	2355.682373046875
0.497	-0.0	-0.0	-0.0	7.1368408203125	7.98669958114624	-109.96075439453124	10.012724876403809	-26.34294891357422	-209.26280212402344	-0.0	-0.0	-0.0	-0.0	-0.0	-0.0	52232.01171875	-2868.313232421875	2421.25
0.4975	-0.0	-0.0	-0.0	7.256497859954834	7.956089973449707	-124.17974853515624	9.72776222229004	-27.1147575378418	-227.9322204589844	-0.0	-0.0	-0.0	-0.0	-0.0	-0.0	57173.19140625	-3670.724609375	2272.468017578125
0.498	-0.0	-0.0	-0.0	7.618363857269287	8.479201316833496	-139.62521362304688	9.50378131866455	-28.162940979003903	-246.0595703125	-0.0	-0.0	-0.0	-0.0	-0.0	-0.0	62446.81640625	-3833.071044921875	1939.5330810546875
0.4985	-0.0	-0.0	-0.0	7.737512111663818	10.339126586914062	-158.95433044433594	9.089991569519045	-29.428924560546875	-266.17041015625	-0.0	-0.0	-0.0	-0.0	-0.0	-0.0	67710.7734375	-4351.17041015625	1701.6826171875
0.499	-0.0	-0.0	-0.0	9.003750801086426	12.151092529296877	-178.94171142578125	8.238234519958496	-31.23042678833008	-284.9299011230469	-0.0	-0.0	-0.0	-0.0	-0.0	-0.0	72374.0546875	-4672.76416015625	1455.4332275390625
0.4995	-0.0	-0.0	-0.0	9.550435066223145	15.246204376220703	-200.0146331787109	7.156591415405273	-33.197059631347656	-301.9221496582031	-0.0	-0.0	-0.0	-0.0	-0.0	-0.0	76917.625	-5019.2724609375	1382.878662109375
0.5	-0.0	-0.0	-0.0	10.798935890197754	17.546592712402344	-223.5326385498047	6.931450366973877	-34.899024963378906	-319.7466735839844	-0.0	-0.0	-0.0	-0.0	-0.0	-0.0	81126.1015625	-5627.837890625	1113.71337890625
0.5005000000000001	-0.0	-0.0	-0.0	12.773248672485352	20.5970516204834	-246.18212890625	6.588757514953613	-37.12329864501953	-332.598876953125	-0.0	-0.0	-0.0	-0.0	-0.0	-0.0	84888.8359375	-5675.11572265625	999.794677734375
0.501	-0.0	-0.0	-0.0	16.547557830810547	22.25811195373535	-272.024169921875	6.399333477020264	-38.672794342041016	-346.7217712402344	-0.0	-0.0	-0.0	-0.0	-0.0	-0.0	88084.3515625	-5882.90478515625	867.1809692382812
0.5015000000000001	-0.0	-0.0	-0.0	20.50902366638184	24.879695892333984	-295.2328491210937	6.564598083496094	-41.09703826904297	-354.03973388671875	-0.0	-0.0	-0.0	-0.0	-0.0	-0.0	90893.96875	-6252.92041015625	888.2399291992188
0.502	-0.0	-0.0	-0.0	25.261451721191406	27.21201515197754	-317.51861572265625	6.51275634765625	-42.85092544555664	-362.86529541015625	-0.0	-0.0	-0.0	-0.0	-0.0	-0.0	92863.8515625	-6578.484375	904.216796875
0.5025000000000001	-0.0	-0.0	-0.0	28.91861724853516	29.94781494140625	-338.0502624511719	7.592026710510254	-44.64152145385742	-369.9546813964844	-0.0	-0.0	-0.0	-0.0	-0.0	-0.0	94174.578125	-6549.392578125	1028.1663818359375
0.503	-0.0	-0.0	-0.0	32.61345672607422	33.54106521606445	-353.3843078613281	7.856269836425781	-46.10391998291016	-374.4929504394531	-0.0	-0.0	-0.0	-0.0	-0.0	-0.0	95155.1875	-6808.31201171875	1120.5421142578125
0.5035000000000001	-0.0	-0.0	-0.0	33.912601470947266	37.52485656738281	-368.0672302246094	8.35132122039795	-46.94977951049805	-375.0380554199219	-0.0	-0.0	-0.0	-0.0	-0.0	-0.0	95655.0546875	-6905.396484375	1303.4141845703125
0.504	-0.0	-0.0	-0.0	34.20615005493164	41.93029022216797	-379.5179443359375	9.214067459106444	-48.43854904174805	-377.18267822265625	-0.0	-0.0	-0.0	-0.0	-0.0	-0.0	96200.890625	-6990.52880859375	1617.364990234375
0.5045000000000001	-0.0	-0.0	-0.0	32.65104675292969	46.51335525512695	-389.0025024414063	9.999035835266112	-49.27091598510742	-376.2859191894531	-0.0	-0.0	-0.0	-0.0	-0.0	-0.0	96010.2578125	-6789.12939453125	1922.7591552734373
0.505	-0.0	-0.0	-0.0	30.764806747436523	50.30744552612305	-395.0561218261719	10.442435264587402	-50.4063606262207	-374.5408325195313	-0.0	-0.0	-0.0	-0.0	-0.0	-0.0	95675.703125	-7080.82080078125	2054.201416015625
0.5055000000000001	-0.0	-0.0	-0.0	27.69392967224121	54.08927917480469	-396.8252258300781	11.215924263000488	-51.07539749145508	-376.78173828125	-0.0	-0.0	-0.0	-0.0	-0.0	-0.0	95299.1640625	-7028.8662109375	2313.074951171875
0.506	-0.0	-0.0	-0.0	25.209178924560547	56.50867462158203	-396.0173034667969	12.051815032958984	-51.79489517211914	-372.696533203125	-0.0	-0.0	-0.0	-0.0	-0.0	-0.0	94600.1796875	-7132.66943359375	2665.178955078125
0.5065000000000001	-0.0	-0.0	-0.0	21.89767837524414	58.2802734375	-391.1329040527344	13.077481269836426	-52.956180572509766	-372.493896484375	-0.0	-0.0	-0.0	-0.0	-0.0	-0.0	94005.2578125	-6736.16845703125	2889.956298828125
0.507	-0.0	-0.0	-0.0	18.36672782897949	59.84575271606445	-387.0755004882813	12.674885749816896	-53.78791046142578	-367.9546813964844	-0.0	-0.0	-0.0	-0.0	-0.0	-0.0	92917.8984375	-6711.35498046875	2982.7314453125
0.5075000000000001	-0.0	-0.0	-0.0	16.289005279541016	60.49322509765625	-380.9247131347656	12.93870449066162	-54.10491943359375	-364.771484375	-0.0	-0.0	-0.0	-0.0	-0.0	-0.0	92120.0078125	-6547.30419921875	3033.3740234375
0.508	-0.0	-0.0	-0.0	13.867361068725586	61.282020568847656	-372.65728759765625	12.912354469299316	-54.43232345581055	-361.3719482421875	-0.0	-0.0	-0.0	-0.0	-0.0	-0.0	90900.9921875	-6133.94140625	2995.819580078125
0.5085000000000001	-0.0	-0.0	-0.0	11.958149909973145	60.30533218383789	-362.5733337402344	12.48181438446045	-53.91566467285156	-356.8703308105469	-0.0	-0.0	-0.0	-0.0	-0.0	-0.0	89407.15625	-6016.6552734375	2991.25048828125
0.509	-0.0	-0.0	-0.0	10.5803804397583	60.27889633178711	-353.9922790527344	12.051385879516602	-53.59804534912109	-347.6149597167969	-0.0	-0.0	-0.0	-0.0	-0.0	-0.0	87749.296875	-5844.90234375	2670.58349609375
0.5095000000000001	-0.0	-0.0	-0.0	9.099472045898438	59.69049453735352	-344.6166687011719	10.809371948242188	-52.85155487060547	-340.5804138183594	-0.0	-0.0	-0.0	-0.0	-0.0	-0.0	86046.0234375	-5473.28564453125	2575.03515625
0.51	-0.0	-0.0	-0.0	6.971939086914063	59.6147346496582	-334.4293518066406	10.241981506347656	-52.21966171264648	-334.751220703125	-0.0	-0.0	-0.0	-0.0	-0.0	-0.0	84178.5625	-5008.93310546875	2413.015380859375
0.5105000000000001	-0.0	-0.0	-0.0	5.488600730895996	59.22334289550781	-327.1221008300781	9.615510940551758	-51.12482833862305	-329.1132202148437	-0.0	-0.0	-0.0	-0.0	-0.0	-0.0	82667.7109375	-4588.576171875	2095.48828125
0.511	-0.0	-0.0	-0.0	4.303011894226074	58.83971405029297	-322.1828918457031	8.346198081970215	-50.20720291137695	-323.5277709960937	-0.0	-0.0	-0.0	-0.0	-0.0	-0.0	81246.765625	-4606.97802734375	1786.623046875
0.5115000000000001	-0.0	-0.0	-0.0	3.245835781097412	58.531227111816406	-317.8619384765625	7.158310413360596	-49.48060989379883	-318.0771484375	-0.0	-0.0	-0.0	-0.0	-0.0	-0.0	79765.6875	-4118.98974609375	1719.909912109375
0.512	-0.0	-0.0	-0.0	1.9977049827575684	57.57823944091797	-314.494140625	6.346069812774658	-47.91128158569336	-313.296875	-0.0	-0.0	-0.0	-0.0	-0.0	-0.0	78182.65625	-3963.645263671875	1386.5537109375
0.5125	-0.0	-0.0	-0.0	1.5502963066101074	57.93476104736328	-312.0462951660156	5.561247825622559	-47.15007400512695	-307.79522705078125	-0.0	-0.0	-0.0	-0.0	-0.0	-0.0	77085.15625	-3775.626220703125	1148.876708984375
0.513	-0.0	-0.0	-0.0	-0.7749927639961243	57.66737365722656	-312.45379638671875	4.31348991394043	-45.88030624389648	-303.6529235839844	-0.0	-0.0	-0.0	-0.0	-0.0	-0.0	76174.3203125	-3318.264892578125	874.816162109375
0.5135	-0.0	-0.0	-0.0	-1.770188570022583	57.00143051147461	-310.5207824707031	3.978071928024292	-45.104679107666016	-301.0782165527344	-0.0	-0.0	-0.0	-0.0	-0.0	-0.0	75246.8359375	-3197.3193359375	698.6571044921875
0.514	-0.0	-0.0	-0.0	-2.7936816215515137	56.0489616394043	-310.2591857910156	3.282299041748047	-44.27698516845703	-298.8188171386719	-0.0	-0.0	-0.0	-0.0	-0.0	-0.0	74741.1875	-2963.60595703125	420.3982238769531
0.5145	-0.0	-0.0	-0.0	-4.300536632537842	55.720645904541016	-308.9764099121094	2.367097854614258	-43.58454895019531	-296.5956115722656	-0.0	-0.0	-0.0	-0.0	-0.0	-0.0	74079.609375	-2683.963623046875	252.8923492431641
0.515	-0.0	-0.0	-0.0	-5.306100368499756	55.08258819580078	-308.2134704589844	1.578669786453247	-43.42217254638672	-294.0810546875	-0.0	-0.0	-0.0	-0.0	-0.0	-0.0	73665.6796875	-2498.044677734375	-0.4650987982749939
